<?xml version="1.0" encoding="UTF-8"?>
<svg id="Layer_2" xmlns="http://www.w3.org/2000/svg" viewBox="0 0 16.28 24.24">
  <defs>
    <style>
      .cls-1 {
        fill: #ee2b2f;
      }

      .cls-2 {
        fill: #fff;
      }

      .cls-3 {
        opacity: 0;
      }
    </style>
  </defs>
  <g id="Layer_1-2" data-name="Layer_1">
    <g>
      <path class="cls-1" d="M8.15,0h-.39s-.09.92-.09.92l-.05.04c-.13.1-.22.27-.24.46l-.05.5-.24.13c-.07.04-.11.12-.12.22l-.02.44s-.02.05-.04.05h-.11s-.34.03-.34.03c-.02,0-.04.02-.04.05v.21s.02.05.04.05h0s.07.03.07.07c0,0,0,0,0,.01,0,.03.02.05.04.04l.23-.02s.05.03.04.06l-.04.52h0c-1.73.4-3.11,2.07-3.56,4.28l-.08.41-.29-.12-.02-.04c-.06-.1-.09-.22-.09-.35v-.44s.3-.07.3-.07l.05-.41.02-.13c.04-.27-.14-.52-.35-.49h-.05s0-.06,0-.06c.03-.24,0-.48-.07-.7l-.03-.08v-.08c-.03-.14-.07-.27-.11-.39l-.03-.08c-.02-.06-.06-.12-.11-.16l-.12-.1s-.04-.06-.04-.1v-.29s0-2.28,0-2.28h-.37l-.02,2.26-.02.25-.17.34-.03.32-.23.34-.22.38-.22.37s-.04.09-.04.15v.76s.01.04.03.04h.33l-.06.15c-.07.17-.09.36-.04.55l.02.08-.1.07c-.29.18-.46.56-.46.97v.3s-.41-.07-.53.05c-.11.12-.07.84-.07.84.23.07.68.91.68.91.06.16.08.33.07.51L.11,23.71h3.17l-.3-5.84h.5l-.05-1.86.1-.03c.28-.09.47-.43.44-.81l-.16-2.38.56-1.13.47-.02v-1.97h-.33c-.08,0-.13-.1-.11-.19l.57-1.12c.29-.58.7-1.05,1.18-1.36l.48-.31c.07-.04.15,0,.18.08l.02.17,1.31-.02"/>
      <path class="cls-1" d="M7.85,6.94l1.6.02.02-.17c.03-.09.11-.13.18-.08l.48.31c.48.31.89.78,1.18,1.36l.57,1.12c.02.1-.03.19-.11.19h-.33s0,1.97,0,1.97l.47.02.56,1.13-.16,2.38c-.03.38.16.72.44.81l.1.03-.05,1.86h.5l-.3,5.84h3.17s-.65-11.96-.65-11.96c0-.18.02-.35.07-.51,0,0,.44-.84.68-.91,0,0,.04-.72-.07-.84-.12-.11-.54-.05-.54-.05v-.3c.01-.41-.17-.79-.45-.97l-.1-.07.02-.08c.04-.18.03-.38-.04-.55l-.06-.15h.33s.03-.02.03-.04v-.76c0-.05-.01-.1-.04-.15l-.22-.37-.22-.38-.23-.34-.03-.32-.17-.34-.02-.25-.02-2.26h-.37s.01,2.28.01,2.28v.29s-.02.08-.05.1l-.12.1s-.08.09-.11.16l-.03.08c-.05.13-.08.26-.1.39v.08s-.04.08-.04.08c-.08.22-.1.46-.07.7v.06s-.04,0-.04,0c-.21-.03-.39.21-.35.49l.02.13.05.41.31.07v.44c-.02.13-.05.25-.1.35l-.02.04-.29.12-.08-.41c-.45-2.21-1.84-3.88-3.56-4.28h0s-.04-.52-.04-.52c0-.03.02-.06.04-.06l.23.02s.04-.02.04-.04c0,0,0,0,0-.01,0-.05.03-.08.07-.07h0s.04-.02.04-.05v-.21s-.02-.05-.04-.05l-.34-.03h-.11s-.04-.03-.04-.06l-.02-.44c0-.1-.05-.18-.12-.22l-.24-.13-.05-.5c-.02-.2-.11-.37-.24-.46l-.05-.04L8.51,0h-.59"/>
      <g>
        <path class="cls-1" d="M7.49,22.71c0-.71,0-1.38,0-2.06,0-.08-.04-.16-.07-.23-.12-.3-.15-.29-.47-.27-.42.03-.85.05-1.24-.15-.06-.03-.1-.1-.15-.15.06-.04.11-.1.18-.11.43-.08.87-.13,1.31-.22.81-.17,1.62-.36,2.43-.53.39-.08.77-.11,1.13.1.1.06.17.16.26.24-.09.07-.18.18-.28.21-.55.13-1.1.24-1.65.35-.27.05-.55.09-.86.13.08.1.15.17.21.25.18.22.28.42.18.74-.12.38-.13.8-.19,1.21-.02.14-.02.28-.04.44.4-.03.78-.05,1.15-.08.67-.06,1.34-.13,2.01-.2.46-.05.91-.07,1.36.05.31.08.57.23.78.46.19.2.15.38-.13.41-.41.04-.83.06-1.24.02-1.22-.11-2.43-.19-3.65-.03-1.13.14-2.26.26-3.39.38-.45.05-.89.11-1.34.12-.39,0-.72-.19-1.01-.43-.05-.04-.06-.11-.1-.17.06-.02.12-.06.18-.06,1.45.02,2.88-.2,4.31-.36.11-.01.22-.02.3-.03Z"/>
        <g class="cls-3">
          <path class="cls-2" d="M9.98,18.92c.21,0,.43.04.63.16.1.06.17.16.26.24-.09.07-.18.18-.28.21-.55.13-1.1.24-1.65.35-.27.05-.55.09-.86.13.08.1.15.17.21.25.18.22.28.42.18.74-.12.38-.13.8-.19,1.21-.02.14-.02.28-.04.44.4-.03.78-.05,1.15-.08.67-.06,1.34-.13,2.01-.2.21-.02.41-.04.62-.04.25,0,.49.02.74.08.31.08.57.23.78.46.19.2.15.38-.13.41-.26.02-.52.04-.78.04-.15,0-.31,0-.46-.02-.73-.06-1.45-.12-2.18-.12-.49,0-.98.02-1.47.09-1.13.14-2.26.26-3.39.38-.45.05-.89.11-1.34.12,0,0-.01,0-.02,0-.38,0-.71-.19-1-.43-.05-.04-.06-.11-.1-.17.06-.02.12-.06.18-.06,0,0,0,0,0,0,.06,0,.12,0,.18,0,1.39,0,2.76-.21,4.13-.36.11-.01.22-.02.3-.03,0-.71,0-1.38,0-2.06,0-.08-.04-.16-.07-.23-.09-.23-.13-.28-.3-.28-.05,0-.1,0-.17,0-.14,0-.28.02-.41.02-.28,0-.56-.03-.83-.17-.06-.03-.1-.1-.15-.15.06-.04.11-.1.18-.11.43-.08.87-.13,1.31-.22.81-.17,1.62-.36,2.43-.53.17-.04.34-.06.51-.06M9.98,18.44c-.18,0-.38.02-.61.07-.35.07-.69.15-1.04.23-.46.1-.93.21-1.39.3-.25.05-.5.09-.74.13-.18.03-.37.06-.55.09-.16.03-.27.12-.33.16-.12.08-.21.22-.23.36-.02.14.03.3.13.4.07.08.15.17.27.24.39.2.79.23,1.05.23.15,0,.3,0,.44-.02,0,0,0,0,0,0,.02.04.02.06.03.07,0,.47,0,.99,0,1.52v.05c-.22.03-.45.05-.67.08-1.08.13-2.19.27-3.29.27h-.17c-.15,0-.26.05-.32.08-.12.05-.25.17-.29.3-.04.13-.06.28,0,.4.04.08.09.2.21.3.28.23.72.55,1.3.55.41,0,.78-.05,1.15-.09l.26-.03.73-.08c.89-.1,1.78-.19,2.67-.3.44-.06.9-.08,1.41-.08.72,0,1.45.06,2.14.12.17.01.33.02.5.02.25,0,.52-.01.83-.04.44-.04.59-.32.64-.44.05-.12.11-.44-.21-.78-.28-.3-.62-.5-1.01-.6-.27-.07-.54-.1-.86-.1-.2,0-.41.01-.67.04-.67.07-1.33.14-2,.2-.19.02-.38.03-.58.04,0-.07.02-.15.02-.22.03-.28.05-.54.13-.76.1-.32.08-.57,0-.78.04,0,.07-.01.11-.02.56-.11,1.12-.22,1.67-.35.2-.05.33-.17.41-.25.02-.02.03-.03.05-.05.11-.09.18-.22.19-.36,0-.14-.05-.28-.15-.37-.02-.02-.04-.04-.06-.06-.07-.07-.16-.17-.29-.25-.26-.15-.54-.22-.87-.22h0Z"/>
        </g>
      </g>
      <g>
        <path class="cls-1" d="M4.24,14.86c-.2.61-.49,1.14-.86,1.62-.12.15-.24.36-.47.31-.23-.04-.23-.28-.27-.46-.09-.38-.02-.7.25-1.02.24-.28.4-.63.57-.95.14-.27.25-.55.37-.83.02,0,.05,0,.07,0,.04.08.1.15.13.23.07.21.11.42.18.63.02.05.08.12.12.11.71-.06,1.42-.13,2.13-.21.83-.1,1.66-.21,2.49-.34.81-.13,1.62-.24,2.38-.54.29-.11.57-.05.83.08.66.33,1.23.79,1.74,1.31.08.08.15.23.12.32-.03.08-.19.15-.3.16-.51.06-1.03.08-1.52.29-.25.11-.49.24-.74.35-.12.05-.25.09-.37.13-.01-.02-.03-.04-.04-.05.04-.08.06-.17.11-.25.16-.28.33-.55.49-.83.05-.09.09-.18.13-.28.14-.36.07-.49-.31-.46-.61.04-1.22.11-1.83.18-.76.08-1.53.19-2.29.27-.81.09-1.63.16-2.44.24-.22.02-.45,0-.69,0h0Z"/>
        <g class="cls-3">
          <path class="cls-2" d="M11.66,13.35c.18,0,.35.05.52.14.66.33,1.23.79,1.74,1.31.08.08.15.23.12.32-.03.08-.19.15-.3.16-.51.06-1.03.08-1.52.29-.25.11-.49.24-.74.35-.12.05-.25.09-.37.13-.01-.02-.03-.04-.04-.05.04-.08.06-.17.11-.25.16-.28.33-.55.49-.83.05-.09.09-.18.13-.28.13-.33.08-.46-.22-.46-.03,0-.05,0-.08,0-.61.04-1.22.11-1.83.18-.76.08-1.53.19-2.29.27-.81.09-1.63.16-2.44.24-.08,0-.17,0-.26,0-.14,0-.28,0-.43,0h0c-.2.61-.49,1.14-.86,1.62-.11.14-.22.32-.41.32-.02,0-.04,0-.06,0-.23-.04-.23-.28-.27-.46-.09-.38-.02-.7.25-1.02.24-.28.4-.63.57-.95.14-.27.25-.55.37-.83.02,0,.05,0,.07,0,.04.08.1.15.13.23.07.21.11.42.18.63.01.05.08.11.12.11,0,0,0,0,0,0,.71-.06,1.42-.13,2.13-.21.83-.1,1.66-.21,2.49-.34.81-.13,1.62-.24,2.38-.54.1-.04.21-.06.31-.06M11.66,12.87c-.17,0-.33.03-.49.09-.66.26-1.37.37-2.11.49l-.17.03c-.71.11-1.5.22-2.47.34-.6.07-1.21.13-1.81.18,0-.01,0-.03-.01-.04-.03-.11-.06-.23-.09-.34-.04-.12-.1-.21-.14-.28l-.03-.05c-.09-.15-.24-.24-.42-.24-.19,0-.43.11-.51.28l-.11.26c-.08.18-.16.36-.25.54l-.08.16c-.14.27-.27.52-.44.71-.36.42-.48.91-.35,1.44v.07c.05.18.14.65.65.75.05,0,.1.01.15.01.41,0,.63-.3.75-.46l.03-.05c.35-.45.61-.92.82-1.43h.1c.1,0,.2,0,.3-.01.82-.07,1.63-.15,2.45-.24.41-.04.82-.09,1.23-.14.35-.04.71-.09,1.06-.12h.1c.47-.06.95-.12,1.43-.16-.08.13-.16.27-.23.4-.08.14-.17.29-.25.43-.04.07-.07.15-.11.23l-.03.07c-.07.16-.04.35.07.49.1.12.29.22.45.22.04,0,.08,0,.12-.02l.1-.03c.1-.03.21-.07.31-.11.12-.05.24-.11.35-.17.13-.06.25-.12.38-.18.33-.14.7-.18,1.1-.22l.28-.03c.21-.02.58-.15.69-.48.1-.29-.05-.63-.23-.81-.61-.62-1.22-1.08-1.87-1.4-.25-.12-.49-.19-.73-.19h0Z"/>
        </g>
      </g>
      <g>
        <path class="cls-1" d="M8.4,15.85c.23,0,.42-.03.61,0,.64.11,1.23.32,1.78.67.5.32.77.9.65,1.43-.06.28-.21.37-.45.23-.31-.17-.6-.39-.9-.6-.62-.43-1.09-1.01-1.58-1.56-.03-.04-.05-.09-.1-.18h0Z"/>
        <g class="cls-3">
          <path class="cls-2" d="M8.8,15.84c.07,0,.14,0,.21.02.64.11,1.23.32,1.78.67.5.32.77.9.65,1.43-.04.19-.13.3-.25.3-.06,0-.12-.02-.2-.06-.31-.18-.6-.39-.9-.6-.62-.43-1.09-1.01-1.58-1.56-.03-.04-.05-.09-.1-.18.14,0,.27-.01.4-.01M8.8,15.36c-.06,0-.13,0-.2,0-.06,0-.13,0-.2,0-.17,0-.33.09-.41.24-.09.15-.09.33,0,.48l.04.07c.03.06.06.13.13.2l.22.25c.43.49.88.99,1.45,1.39l.17.12c.25.17.5.35.77.51.15.08.29.12.43.12s.58-.05.72-.67c.16-.72-.19-1.52-.86-1.94-.58-.37-1.24-.61-1.96-.74-.09-.02-.19-.02-.29-.02h0Z"/>
        </g>
      </g>
      <g>
        <path class="cls-1" d="M3.54,19.19c.09-.11.17-.21.26-.3.53-.52,1.04-1.07,1.45-1.69.23-.35.42-.71.4-1.16,0-.23.13-.32.35-.25.35.11.64.3.89.56.18.19.14.25-.05.42-.39.35-.76.72-1.13,1.09-.56.57-1.2,1-1.94,1.31-.04.02-.09.03-.14.04-.02,0-.04,0-.09-.02h0Z"/>
        <g class="cls-3">
          <path class="cls-2" d="M5.86,15.77s.09,0,.14.02c.35.11.64.3.89.56.18.19.14.25-.05.42-.39.35-.76.72-1.13,1.09-.56.57-1.2,1-1.94,1.31-.04.02-.09.03-.14.04,0,0,0,0,0,0-.02,0-.04,0-.08-.02.09-.11.17-.21.26-.3.53-.52,1.04-1.07,1.45-1.69.23-.35.42-.71.4-1.16,0-.18.07-.27.21-.27M5.86,15.29h0c-.19,0-.37.07-.49.2-.1.1-.21.28-.2.56,0,.3-.12.57-.32.88-.42.64-.96,1.2-1.38,1.61-.07.07-.14.15-.21.23l-.08.1c-.11.13-.14.3-.09.46.05.16.18.28.35.32.06.02.12.03.19.03.03,0,.07,0,.11-.01.07-.01.15-.03.22-.06.79-.33,1.49-.8,2.09-1.41.36-.37.73-.74,1.11-1.07.13-.11.32-.28.33-.56.01-.28-.17-.47-.25-.55-.31-.33-.68-.56-1.09-.69-.1-.03-.19-.05-.28-.05h0Z"/>
        </g>
      </g>
      <g>
        <path class="cls-1" d="M7.27,11.54c.36.03.76.14,1.13.36.44.27.43.81.26,1.14-.09.19-.26.18-.4.08-.29-.21-.58-.43-.84-.67-.17-.15-.32-.34-.44-.53-.18-.29-.11-.39.29-.38Z"/>
        <g class="cls-3">
          <path class="cls-2" d="M7.24,11.54s.02,0,.03,0c.36.03.76.14,1.13.36.44.27.43.81.26,1.14-.05.11-.13.15-.21.15-.06,0-.13-.03-.19-.07-.29-.21-.58-.43-.84-.67-.17-.15-.32-.34-.44-.53-.17-.28-.11-.38.26-.38M7.24,11.06h0c-.16,0-.57,0-.76.34-.18.33.02.67.09.78.15.24.33.46.52.63.26.23.55.46.89.71.14.1.3.16.47.16.27,0,.52-.16.64-.42.27-.56.21-1.36-.44-1.76-.4-.24-.88-.4-1.34-.43-.01,0-.06,0-.07,0h0Z"/>
        </g>
      </g>
    </g>
  </g>
</svg>