<?xml version="1.0" encoding="UTF-8"?>
<svg id="Layer_2" xmlns="http://www.w3.org/2000/svg" viewBox="0 0 2034.58 3029.74">
  <defs>
    <style>
      .cls-1 {
        fill: #fff;
      }

      .cls-2 {
        opacity: 0;
      }

      .cls-3 {
        fill: #ee2d31;
      }
    </style>
  </defs>
  <g id="Layer_1-2" data-name="Layer_1">
    <g>
      <path class="cls-3" d="M1018.74,0l-48.4.15-10.66,114.77-6.86,5c-16.59,12.09-27.89,33.57-30.56,58.07l-6.82,62.6-30.46,16.65c-8.43,4.61-14.11,15.07-14.64,26.96l-2.43,55.11c-.16,3.7-2.45,6.64-5.3,6.79l-13.53.75-42.65,3.39c-2.55.2-4.55,2.93-4.58,6.26l-.25,25.77c-.04,3.61,2.42,6.41,5.16,5.88l.18-.03c4.46-.86,8.49,3.45,8.73,9.28.02.58.05,1.16.07,1.71.14,3.22,2.26,5.67,4.73,5.49l28.62-2.07c3.19-.23,5.79,3.28,5.5,7.42l-4.54,64.95h0c-215.63,50.55-389.21,259.32-445.01,535.26l-10.42,51.55-36.76-14.64-2.91-5.42c-6.89-12.82-10.78-27.96-11.21-43.6l-1.52-55.3,39.12-8.49,6.52-50.95,2.11-16.46c4.4-34.35-17.63-64.64-44.21-60.8l-5.72.83.97-8.03c3.62-29.83.36-60.38-9.35-87.81l-3.42-9.65-1.63-10.47c-2.64-16.99-6.82-33.5-12.45-49.2l-3.61-10.06c-2.89-8.05-7.51-14.85-13.29-19.57l-15.34-12.53c-3.38-2.76-5.47-7.53-5.59-12.72l-.79-35.97,1.46-284.63h-45.64l-2.34,282.93-1.95,30.99-21.79,42.91-4.34,39.46-28.84,42.62-27.67,47.96-27.75,45.77c-3.15,5.19-4.86,11.61-4.86,18.22v94.76c0,3,1.87,5.43,4.17,5.43h41.48l-7.83,18.35c-8.88,20.82-10.82,45.46-5.36,68.19l2.33,9.7-13.12,8.29c-35.7,22.54-58.01,70.14-57.09,121.8l.66,36.92s-52.41-8.64-67.38,5.66c-13.99,14.64-8.69,104.73-8.69,104.73,29.17,8.77,84.63,114.02,84.63,114.02,7.21,19.89,10.38,41.87,9.19,63.81L13.94,2963.81h396.08l-37.38-730.3h63.03l-6.52-232.11,12.01-3.68c35.42-10.85,59.19-54.2,55.58-101.36l-19.78-296.91,69.55-141.53,58.68-2.83v-246.26h-41.48c-9.71,0-16.73-12.11-14.06-24.27l70.98-139.6c36.86-72.5,87.82-130.97,147.7-169.45l60.41-38.83c8.48-5.45,18.73-.63,22.58,10.62l2.83,21.86,163.36-2.37"/>
      <path class="cls-3" d="M981,867l199.42,2.34,2.83-21.86c3.85-11.25,14.11-16.07,22.58-10.62l60.41,38.83c59.87,38.48,110.84,96.95,147.7,169.45l70.98,139.6c2.67,12.16-4.35,24.27-14.06,24.27h-41.48s0,246.26,0,246.26l58.68,2.83,69.55,141.53-19.78,296.91c-3.61,47.16,20.16,90.5,55.58,101.36l12.01,3.68-6.52,232.11h63.03s-37.38,730.3-37.38,730.3h396.08s-80.86-1495.06-80.86-1495.06c-1.19-21.94,1.98-43.92,9.19-63.81,0,0,55.46-105.25,84.63-114.02,0,0,5.29-90.09-8.69-104.73-14.96-14.3-67.38-5.66-67.38-5.66l.66-36.92c.92-51.65-21.39-99.26-57.09-121.8l-13.12-8.29,2.33-9.7c5.45-22.73,3.51-47.37-5.36-68.19l-7.83-18.35h41.48c2.3,0,4.17-2.43,4.17-5.43v-94.76c0-6.61-1.71-13.03-4.86-18.22l-27.75-45.77-27.67-47.96-28.84-42.62-4.34-39.46-21.79-42.91-1.95-30.99-2.34-282.93h-45.64s1.46,284.63,1.46,284.63l-.79,35.97c-.11,5.19-2.21,9.96-5.59,12.72l-15.34,12.53c-5.78,4.72-10.4,11.52-13.29,19.57l-3.61,10.06c-5.64,15.7-9.82,32.22-12.45,49.2l-1.63,10.47-3.42,9.65c-9.71,27.42-12.97,57.98-9.35,87.81l.97,8.03-5.72-.83c-26.57-3.85-48.6,26.45-44.21,60.8l2.11,16.46,6.52,50.95,39.12,8.49-1.52,55.3c-.43,15.64-4.32,30.78-11.21,43.6l-2.91,5.42-36.76,14.64-10.42-51.55c-55.8-275.94-229.38-484.71-445.01-535.26h0s-4.54-64.95-4.54-64.95c-.29-4.14,2.31-7.65,5.5-7.42l28.62,2.07c2.47.18,4.59-2.28,4.73-5.49.02-.56.05-1.13.07-1.71.24-5.83,4.27-10.13,8.73-9.28l.18.03c2.74.53,5.2-2.27,5.16-5.88l-.25-25.77c-.03-3.33-2.03-6.06-4.58-6.26l-42.65-3.39-13.53-.75c-2.84-.16-5.13-3.09-5.3-6.79l-2.43-55.11c-.52-11.89-6.2-22.35-14.64-26.96l-30.46-16.65-6.82-62.6c-2.67-24.51-13.97-45.99-30.56-58.07l-6.86-5L1064.24.34l-73.24-.34"/>
      <g>
        <path class="cls-3" d="M936.61,2838.48c0-88.62.31-172.84-.41-257.06-.1-9.78-4.92-19.77-8.76-29.2-15.01-36.99-18.34-36.78-58.5-34.27-52.66,3.33-105.99,6.1-155.17-19.36-7.53-3.89-12.81-12.29-19.11-18.6,7.33-4.71,14.14-12.29,22.08-13.73,54.3-9.84,109.27-16.55,163.26-27.71,101.53-20.9,202.56-44.52,303.99-66.14,48.15-10.25,96.72-13.63,141.7,11.94,12.45,7.07,21.67,19.77,32.32,29.87-11.63,8.86-22.13,22.69-35.09,25.77-68.54,16.03-137.55,29.92-206.65,43.34-34.17,6.66-68.85,10.71-107.37,16.6,10.04,11.88,18.34,21.82,26.74,31.71,22.9,26.95,35.24,52.05,22.23,92.11-15.47,47.74-16.55,100.25-23.31,150.76-2.36,17.42-3.02,35.09-4.71,55.22,49.84-3.53,97.13-6.15,144.26-10.45,83.86-7.68,167.67-15.73,251.32-24.9,57.07-6.25,113.83-8.35,170.03,5.69,38.16,9.53,70.95,29.25,97.74,57.68,24.18,25.61,18.7,47.8-15.68,51.07-51.43,4.92-103.99,7.38-155.32,2.82-152.04-13.52-303.58-23.46-456.03-4.05-140.93,17.93-282.32,32.27-423.55,47.59-55.68,6.04-111.52,13.78-167.36,14.55-48.31.67-89.75-23.67-126.43-54.25-5.79-4.82-8.09-13.78-12.04-20.8,7.58-2.61,15.16-7.58,22.69-7.48,181.19,2.36,359.83-24.79,539.02-45.34,13.47-1.43,26.95-2.41,38.11-3.38Z"/>
        <g class="cls-2">
          <path class="cls-1" d="M1247.15,2364.75c26.84,0,53.25,5.22,78.54,19.59,12.45,7.07,21.67,19.77,32.32,29.87-11.63,8.86-22.13,22.69-35.09,25.77-68.54,16.03-137.55,29.92-206.65,43.34-34.17,6.66-68.85,10.71-107.37,16.6,10.04,11.88,18.34,21.82,26.74,31.71,22.9,26.95,35.24,52.05,22.23,92.11-15.47,47.75-16.55,100.25-23.31,150.76-2.36,17.42-3.02,35.09-4.71,55.22,49.84-3.53,97.13-6.15,144.26-10.45,83.86-7.68,167.67-15.73,251.32-24.9,25.94-2.84,51.82-4.82,77.61-4.82,30.94,0,61.76,2.86,92.41,10.51,38.16,9.53,70.95,29.25,97.74,57.68,24.18,25.61,18.7,47.8-15.68,51.08-32.45,3.1-65.35,5.23-98.11,5.23-19.16,0-38.27-.73-57.21-2.41-91-8.09-181.84-14.9-272.78-14.91-61,0-122.05,3.06-183.25,10.86-140.93,17.93-282.32,32.27-423.55,47.59-55.69,6.04-111.52,13.78-167.36,14.55-.65,0-1.29.01-1.94.01-47.48,0-88.31-24.09-124.49-54.26-5.79-4.82-8.09-13.78-12.04-20.8,7.5-2.59,15.01-7.48,22.46-7.48.08,0,.15,0,.23,0,7.42.1,14.84.14,22.25.14,173.58,0,344.91-25.78,516.77-45.48,13.47-1.43,26.95-2.41,38.11-3.38,0-88.62.31-172.84-.41-257.06-.1-9.79-4.92-19.77-8.76-29.2-11.85-29.21-16.42-35.23-37.61-35.23-5.64,0-12.45.43-20.9.95-17.23,1.09-34.53,2.12-51.73,2.12-35.38,0-70.35-4.35-103.44-21.48-7.53-3.89-12.81-12.29-19.11-18.6,7.33-4.71,14.14-12.29,22.08-13.73,54.3-9.84,109.27-16.55,163.26-27.71,101.53-20.9,202.56-44.52,303.99-66.13,21.09-4.49,42.25-7.66,63.16-7.66M1247.15,2304.75c-22.84,0-46.88,2.85-75.65,8.97-43.35,9.24-87.2,18.97-129.6,28.38-57.05,12.66-116.04,25.75-174,37.68-.02,0-.04,0-.06.01-30.32,6.27-60.8,11.05-93.06,16.1-22.45,3.52-45.67,7.15-68.74,11.33-20.06,3.62-34.05,14.61-41.56,20.51-.87.68-2.04,1.6-2.56,1.98-15.11,9.84-25,25.95-26.92,43.89-1.93,18.04,4.4,35.99,17.23,48.82.45.46,1.73,1.95,2.66,3.04,5.91,6.88,15.79,18.4,31.31,26.42,48.8,25.26,98.13,28.19,130.99,28.19,18.58,0,36.86-1.06,55.52-2.24.12,0,.25-.02.37-.02.21.5.41.99.62,1.49.78,1.86,1.85,4.43,2.52,6.2.52,63.12.47,125.62.41,191.71,0,2.26,0,4.52,0,6.79-28.06,3.27-56.27,6.7-83.69,10.03-134.9,16.38-274.39,33.33-411.22,33.33-7.19,0-14.42-.05-21.47-.14-.37,0-.69,0-1.01,0-17.77,0-31.4,6.05-39.55,9.66-.92.41-2.17.96-2.71,1.18-16.71,5.84-29.99,18.76-36.28,35.31-6.28,16.51-4.96,34.95,3.59,50.4.25.52.78,1.7,1.17,2.58,3.61,8.07,10.34,23.1,24.98,35.28,24.4,20.34,47.52,35.56,70.69,46.54,30.24,14.33,61.25,21.6,92.18,21.6.91,0,1.83,0,2.75-.02,48.03-.66,95.28-6.06,140.98-11.29,10.53-1.21,21.43-2.45,32.05-3.6,30.18-3.27,60.9-6.56,90.61-9.74,109.48-11.71,222.68-23.82,334.04-37.98,54.84-6.98,112.3-10.38,175.68-10.38,90.13,0,181.81,7.05,267.46,14.67,19.77,1.76,40.8,2.65,62.53,2.65,31.16,0,65.12-1.8,103.82-5.5,16.25-1.55,30.72-5.79,43.01-12.6,17.41-9.65,30.14-24.14,36.81-41.89,6.97-18.55,6.66-38.81-.9-58.59-5.14-13.46-13.65-26.53-25.29-38.87h0s-.01-.01-.02-.02c0,0-.01-.01-.02-.02-35.21-37.35-77.89-62.49-126.84-74.71-33.13-8.27-68.11-12.3-106.95-12.3-25.13,0-51.86,1.65-84.14,5.18-91.6,10.04-181.86,18.52-250.27,24.79-23.91,2.18-47.8,3.92-72.47,5.59,1.07-9.42,2.01-18.75,2.93-27.89,3.47-34.39,6.74-66.88,15.85-94.99,9.98-30.73,10.91-59.02,2.82-86.44-1.12-3.8-2.39-7.47-3.77-11.02,4.57-.81,9.15-1.66,13.75-2.55,65.98-12.82,136.98-27,208.84-43.81.06-.01.12-.03.18-.04,24.21-5.74,40.46-20.78,51.21-30.72,2.35-2.18,5.02-4.64,6.41-5.7,14-10.67,22.6-26.94,23.55-44.51.94-17.57-5.88-34.67-18.66-46.77-2.02-1.91-4.53-4.59-7.18-7.43-8.56-9.15-20.28-21.68-36.77-31.05-32.46-18.45-67.85-27.42-108.17-27.42h0Z"/>
        </g>
      </g>
      <g>
        <path class="cls-3" d="M530.57,1857.52c-24.9,76.07-61.06,142.31-107.68,202.71-14.86,19.26-29.81,44.52-58.2,39.19-28.53-5.38-28.94-34.73-34.22-57.27-11.12-47.49-1.9-87.96,31.35-127.46,29.56-35.09,50-78.28,71.77-119.36,17.67-33.35,31.4-68.8,46.87-103.33,3.02,0,6.04-.05,9.07-.05,5.53,9.63,12.91,18.7,16.19,29.1,8.2,25.92,13.83,52.61,22.03,78.48,1.9,5.89,10.35,14.5,15.06,14.04,88.98-8.09,178.02-15.98,266.69-26.69,103.89-12.55,207.68-26.13,311.06-42.42,100.66-15.88,201.94-29.97,297.84-67.72,35.71-14.04,71.1-6.66,103.63,9.58,82.43,41.14,153.43,98.36,217.82,163.52,9.58,9.68,18.6,29.2,15.01,39.8-3.38,9.94-23.36,18.34-36.94,19.93-64.19,7.48-129.3,9.68-189.7,36.01-31.2,13.58-61.27,29.66-92.31,43.6-14.8,6.66-30.74,10.86-46.16,16.14-1.84-2.25-3.64-4.51-5.48-6.76,4.46-10.4,7.94-21.31,13.52-31.04,19.88-34.73,40.73-68.9,60.65-103.63,6.35-11.01,11.63-22.8,16.29-34.63,17.47-44.57,8.15-60.91-38.27-57.68-76.33,5.33-152.45,13.99-228.53,22.44-95.54,10.6-190.88,23.21-286.47,33.5-101.53,10.91-203.22,20.59-304.96,29.56-27.92,2.51-56.2.46-85.96.46h0Z"/>
        <g class="cls-2">
          <path class="cls-1" d="M1457.5,1669.31c22.23,0,43.96,6.73,64.54,17,82.43,41.14,153.43,98.36,217.82,163.52,9.58,9.68,18.6,29.2,15.01,39.8-3.38,9.94-23.36,18.34-36.94,19.93-64.19,7.48-129.3,9.68-189.7,36.01-31.2,13.58-61.27,29.66-92.31,43.59-14.81,6.66-30.74,10.86-46.16,16.14-1.84-2.25-3.64-4.51-5.48-6.76,4.46-10.4,7.94-21.31,13.52-31.04,19.88-34.73,40.73-68.9,60.65-103.63,6.35-11.01,11.63-22.8,16.29-34.63,16.05-40.96,9.48-58.08-27.71-58.08-3.28,0-6.79.13-10.55.39-76.33,5.33-152.45,13.99-228.53,22.44-95.54,10.6-190.88,23.21-286.47,33.5-101.53,10.91-203.22,20.59-304.96,29.56-10.6.95-21.26,1.25-32.03,1.25-17.58,0-35.47-.79-53.93-.79h0c-24.9,76.07-61.06,142.31-107.68,202.71-13.49,17.49-27.06,39.91-50.68,39.91-2.4,0-4.9-.23-7.52-.72-28.53-5.38-28.94-34.73-34.22-57.27-11.12-47.49-1.9-87.96,31.35-127.46,29.56-35.09,50-78.28,71.77-119.36,17.67-33.35,31.4-68.8,46.87-103.33,3.02,0,6.04-.05,9.07-.05,5.53,9.63,12.91,18.7,16.19,29.1,8.2,25.92,13.83,52.61,22.03,78.48,1.85,5.74,9.92,14.05,14.69,14.05.13,0,.25,0,.37-.02,88.98-8.09,178.02-15.98,266.69-26.69,103.89-12.55,207.68-26.13,311.06-42.42,100.66-15.88,201.94-29.97,297.84-67.72,13.11-5.16,26.19-7.42,39.09-7.42M1457.5,1609.31c-20.96,0-41.49,3.9-61.04,11.58-82.9,32.64-170.65,46.36-263.55,60.89-7.23,1.13-14.46,2.26-21.69,3.4-89.03,14.03-187.18,27.41-308.9,42.12-74.86,9.04-151.5,16.19-226.17,22.98-.47-1.77-.94-3.55-1.41-5.34-3.58-13.6-7.27-27.66-11.81-41.99-4.68-14.85-12.1-26.34-17.51-34.73-1.5-2.33-2.92-4.53-3.86-6.16-10.7-18.63-30.54-30.11-52.03-30.11-1.68,0-3.36.01-5.04.03-1.34.01-2.69.02-4.03.02-23.65,0-45.09,13.89-54.75,35.47-4.93,11-9.68,22.06-14.26,32.75-10.16,23.68-19.76,46.04-30.87,67.01-3.45,6.51-6.88,13.1-10.2,19.46-17.33,33.28-33.71,64.72-54.45,89.34-22.47,26.69-37.52,55.38-44.74,85.29-7.16,29.65-6.87,61.44.86,94.49.55,2.36,1.14,5.43,1.76,8.68,2.37,12.41,5.61,29.41,14.39,45.9,13.62,25.56,36.83,42.59,65.37,47.97,6.24,1.17,12.49,1.76,18.63,1.76,16.51,0,41.28-4.4,65.49-25.36,12.28-10.62,21.24-22.63,28.44-32.27,1.51-2.02,2.94-3.94,4.25-5.64,43.22-55.99,76.83-114.79,102.05-178.66,3.99.06,8.02.1,12.05.1,14.21,0,26.09-.47,37.39-1.49,112.11-9.88,212.21-19.58,306.01-29.66,51.64-5.56,103.86-11.87,154.35-17.97,43.4-5.24,88.28-10.67,132.32-15.55l12.78-1.42c58.79-6.54,119.26-13.27,179.06-18.19-9.57,16.67-19.61,33.66-29.33,50.09-10.32,17.46-21,35.5-31.35,53.59-6,10.47-10.04,20.74-13.28,28.99-1.17,2.98-2.28,5.79-3.32,8.22-8.81,20.56-5.45,44.32,8.71,61.63.84,1.02,1.66,2.05,2.49,3.07.99,1.23,1.98,2.46,2.99,3.69,11.61,14.19,28.78,22.01,46.45,22.01,6.49,0,13.04-1.05,19.42-3.23,4.08-1.4,8.4-2.77,12.96-4.22,11.69-3.71,24.94-7.92,38.38-13.97,15.2-6.82,29.99-14.04,44.3-21.02,16.33-7.97,31.75-15.49,47.34-22.28,41.02-17.88,87.77-22.63,137.26-27.66,11.55-1.17,23.5-2.39,35.44-3.78,13.95-1.63,28.88-6.15,42.08-12.72,28.41-14.14,40-33.63,44.71-47.48.01-.03.02-.07.04-.1,6.34-18.76,5.03-40.2-3.79-61.99-6-14.8-15.02-28.74-25.4-39.23-76.59-77.5-153.04-134.76-233.68-175-30.99-15.47-61.72-23.32-91.34-23.32h0Z"/>
        </g>
      </g>
      <g>
        <path class="cls-3" d="M1050.33,1981.18c28.79,0,52.97-3.33,75.97.61,79.45,13.52,154.35,40.27,222.84,83.6,62.7,39.65,95.9,112.96,81.04,179.14-7.79,34.78-25.87,46.46-56.81,29.2-39.19-21.87-75.56-48.92-112.5-74.69-77-53.74-135.86-126.12-197.84-195.23-4.15-4.66-6.35-11.17-12.7-22.64h0Z"/>
        <g class="cls-2">
          <path class="cls-1" d="M1099.97,1979.87c9.06,0,17.78.46,26.33,1.93,79.45,13.52,154.35,40.27,222.84,83.6,62.7,39.65,95.9,112.96,81.04,179.14-5.39,24.08-15.71,37.08-31.82,37.08-7.16,0-15.47-2.57-24.99-7.88-39.19-21.88-75.56-48.92-112.5-74.69-77-53.74-135.86-126.12-197.84-195.23-4.15-4.66-6.35-11.17-12.7-22.64h0c18.08,0,34.34-1.31,49.64-1.31M1099.97,1919.87c-8.53,0-16.97.34-25.14.66-8,.32-16.28.65-24.5.65-21.24,0-40.9,11.23-51.69,29.53-10.79,18.3-11.09,40.94-.8,59.53,1.73,3.12,3.11,5.89,4.45,8.57,3.57,7.14,8.02,16.02,15.92,24.9.05.06.1.12.15.17,9.04,10.08,18.24,20.49,27.14,30.55,53.87,60.94,109.58,123.95,181.03,173.82,6.88,4.8,13.92,9.77,20.72,14.58,30.65,21.65,62.35,44.03,96.87,63.3,18.43,10.28,36.67,15.49,54.23,15.49,25.7,0,49.08-10.97,65.84-30.89,11.59-13.78,19.62-31.15,24.53-53.09,5.14-22.89,6.3-46.63,3.45-70.55-2.72-22.82-9.04-45.3-18.77-66.82-9.6-21.21-22.3-40.99-37.74-58.79-15.77-18.18-34.1-33.93-54.46-46.8-36.96-23.39-76.84-43.08-118.53-58.53-39.76-14.74-82.26-26.01-126.31-33.51-11.08-1.9-22.66-2.78-36.41-2.78h0Z"/>
        </g>
      </g>
      <g>
        <path class="cls-3" d="M442.05,2398.79c11.78-13.68,21.31-26.48,32.53-37.45,66.6-65.11,129.66-133.24,180.63-211.57,28.53-43.9,52.05-89.34,50.25-144.62-.92-29.3,16.09-39.6,43.75-30.99,43.24,13.47,80.12,37.55,111.06,70.23,22.34,23.62,17.47,30.69-6.61,52.1-48.82,43.49-94.93,90.21-140.93,136.78-69.88,70.69-150.46,125-242.05,163.21-5.43,2.25-11.32,3.59-17.11,4.71-2.2.46-4.82-.87-11.53-2.41h0Z"/>
        <g class="cls-2">
          <path class="cls-1" d="M732.07,1971.23c5.11,0,10.85.98,17.14,2.94,43.24,13.47,80.12,37.55,111.06,70.23,22.34,23.62,17.47,30.69-6.61,52.1-48.82,43.49-94.93,90.21-140.93,136.78-69.88,70.7-150.46,125-242.05,163.21-5.43,2.25-11.32,3.59-17.11,4.71-.3.06-.61.09-.94.09-2.06,0-4.8-1.17-10.59-2.5,11.78-13.68,21.31-26.48,32.53-37.45,66.6-65.11,129.66-133.24,180.63-211.57,28.53-43.9,52.05-89.34,50.25-144.62-.71-22.63,9.28-33.93,26.61-33.93M732.08,1911.23h0c-24.11,0-46.08,8.97-61.86,25.26-11.9,12.28-25.85,34.5-24.72,70.56,0,.02,0,.04,0,.06,1.22,37.56-15.35,71.13-40.59,109.97-52.23,80.26-119.5,149.78-172.27,201.37-9.88,9.65-18.08,19.59-26.01,29.2-3.42,4.14-6.64,8.05-10.04,11.99-13.73,15.94-18.11,37.9-11.55,57.88,6.56,19.98,23.11,35.07,43.61,39.77,1.03.24,1.88.47,3.07.81,4.3,1.2,11.49,3.21,20.92,3.21,4.24,0,8.47-.42,12.61-1.24,8.26-1.61,18.07-3.85,28.44-8.15.03-.01.07-.03.1-.04,49.25-20.55,96.22-45.8,139.61-75.05,43.42-29.27,84.47-63.38,122.01-101.36l1.15-1.17c44.26-44.8,90.02-91.13,137.01-132.99,15.71-13.97,39.51-35.14,40.99-69.55.65-15.08-3.23-29.87-11.53-43.96-4.63-7.85-10.72-15.67-19.18-24.62-38.91-41.1-84.93-70.12-136.8-86.29-12.07-3.75-23.83-5.65-34.99-5.65h0Z"/>
        </g>
      </g>
      <g>
        <path class="cls-3" d="M909.1,1442.47c44.72,3.38,95.23,17.72,140.88,45.59,55.07,33.61,53.38,101.07,32.99,142.67-11.37,23.16-33.04,22.39-50.1,10.19-36.53-26.08-72.13-53.79-105.27-83.96-21.11-19.21-39.7-42.37-54.97-66.6-22.39-35.65-13.73-48.67,36.47-47.9Z"/>
        <g class="cls-2">
          <path class="cls-1" d="M905.03,1442.44c1.32,0,2.68.01,4.07.03,44.72,3.38,95.23,17.72,140.88,45.59,55.07,33.61,53.38,101.07,32.99,142.67-6.46,13.16-16.25,18.59-26.63,18.59-7.88,0-16.11-3.13-23.47-8.4-36.53-26.08-72.13-53.79-105.27-83.96-21.11-19.21-39.7-42.37-54.97-66.6-21.77-34.67-14.18-47.93,32.41-47.93M905.03,1382.44h0c-17.96,0-32.06,1.57-44.36,4.94-28.81,7.89-43.36,24.92-50.49,37.82-6.88,12.45-13.47,32.98-5.77,60.1,3.28,11.55,8.81,23.3,17.4,36.98.02.03.03.05.05.08,19.12,30.35,41.11,56.92,65.35,78.99,31.94,29.07,68.18,58,110.8,88.42,17.9,12.79,38.08,19.56,58.33,19.56,34.36,0,64.45-19.49,80.49-52.14,16.39-33.45,22.69-73.39,17.29-109.62-7-46.99-32.88-86.3-72.88-110.71-26.06-15.91-54.36-28.7-84.11-38.02-27.57-8.63-55.67-14.08-83.5-16.18-1.2-.09-2.4-.15-3.6-.16-1.69-.03-3.37-.04-4.99-.04h0Z"/>
        </g>
      </g>
    </g>
  </g>
</svg>